{
  "scoreTitle": "Bach - Prelude in C Major (WTC I)",
  "notes": [
    {
      "pitch": 48,
      "velocity": 62,
      "startTimeMs": 0,
      "durationMs": 371.60890773230966
    },
    {
      "pitch": 52,
      "velocity": 63,
      "startTimeMs": 105.98132801660066,
      "durationMs": 406.9068941273255
    },
    {
      "pitch": 55,
      "velocity": 45,
      "startTimeMs": 208.54754485746784,
      "durationMs": 424.3222995339933
    },
    {
      "pitch": 60,
      "velocity": 59,
      "startTimeMs": 309.28079283846637,
      "durationMs": 427.82487715115525
    },
    {
      "pitch": 64,
      "velocity": 68,
      "startTimeMs": 428.899436739979,
      "durationMs": 396.69798123141567
    },
    {
      "pitch": 72,
      "velocity": 57,
      "startTimeMs": 504.9217443941273,
      "durationMs": 366.2562137708497
    },
    {
      "pitch": 55,
      "velocity": 59,
      "startTimeMs": 637.2851309309752,
      "durationMs": 421.19517809850424
    },
    {
      "pitch": 52,
      "velocity": 64,
      "startTimeMs": 742.3428532367865,
      "durationMs": 464.84813515876755
    },
    {
      "pitch": 48,
      "velocity": 62,
      "startTimeMs": 816.115539286283,
      "durationMs": 450.8002092652532
    },
    {
      "pitch": 57,
      "velocity": 56,
      "startTimeMs": 1039.803078761404,
      "durationMs": 374.4984288111773
    },
    {
      "pitch": 60,
      "velocity": 65,
      "startTimeMs": 1153.9061458716753,
      "durationMs": 363.0919803639852
    },
    {
      "pitch": 65,
      "velocity": 69,
      "startTimeMs": 1239.792437006057,
      "durationMs": 401.59859688637266
    },
    {
      "pitch": 57,
      "velocity": 46,
      "startTimeMs": 1472.0474101409259,
      "durationMs": 382.79767566217976
    },
    {
      "pitch": 53,
      "velocity": 51,
      "startTimeMs": 1553.2096350390282,
      "durationMs": 468.3086821898598
    },
    {
      "pitch": 43,
      "velocity": 70,
      "startTimeMs": 1655.1717284288325,
      "durationMs": 403.6206542992497
    },
    {
      "pitch": 47,
      "velocity": 52,
      "startTimeMs": 1761.4285399932555,
      "durationMs": 447.2902894281175
    },
    {
      "pitch": 55,
      "velocity": 63,
      "startTimeMs": 1872.137353091783,
      "durationMs": 404.09172980921636
    },
    {
      "pitch": 47,
      "velocity": 46,
      "startTimeMs": 1962.8030431536185,
      "durationMs": 461.8045303749999
    },
    {
      "pitch": 62,
      "velocity": 74,
      "startTimeMs": 2090.5525818731867,
      "durationMs": 362.1076299356613
    },
    {
      "pitch": 71,
      "velocity": 45,
      "startTimeMs": 2206.3431351045447,
      "durationMs": 439.20209294873155
    },
    {
      "pitch": 55,
      "velocity": 65,
      "startTimeMs": 2301.701778650331,
      "durationMs": 396.68860079554736
    },
    {
      "pitch": 47,
      "velocity": 53,
      "startTimeMs": 2375.9631459774027,
      "durationMs": 475.65267902543104
    },
    {
      "pitch": 48,
      "velocity": 75,
      "startTimeMs": 2484.256432911908,
      "durationMs": 391.4722655977458
    },
    {
      "pitch": 52,
      "velocity": 50,
      "startTimeMs": 2590.280237408652,
      "durationMs": 421.58904543161987
    },
    {
      "pitch": 55,
      "velocity": 55,
      "startTimeMs": 2688.356209178451,
      "durationMs": 415.2423801702852
    },
    {
      "pitch": 60,
      "velocity": 54,
      "startTimeMs": 2831.9128551577523,
      "durationMs": 384.09820545892404
    },
    {
      "pitch": 64,
      "velocity": 70,
      "startTimeMs": 2899.8169485983217,
      "durationMs": 456.16957334417776
    },
    {
      "pitch": 55,
      "velocity": 50,
      "startTimeMs": 3142.8739471881995,
      "durationMs": 387.29874528417406
    },
    {
      "pitch": 52,
      "velocity": 62,
      "startTimeMs": 3217.6385948843504,
      "durationMs": 448.57481624614235
    },
    {
      "pitch": 48,
      "velocity": 75,
      "startTimeMs": 3329.2930253332306,
      "durationMs": 400.84422948282844
    },
    {
      "pitch": 52,
      "velocity": 47,
      "startTimeMs": 3427.4162245466405,
      "durationMs": 396.4273619350986
    },
    {
      "pitch": 57,
      "velocity": 47,
      "startTimeMs": 3530.4753620447295,
      "durationMs": 442.64678498522346
    },
    {
      "pitch": 60,
      "velocity": 55,
      "startTimeMs": 3627.0898516554544,
      "durationMs": 363.0238354027483
    },
    {
      "pitch": 64,
      "velocity": 59,
      "startTimeMs": 3738.5694722948174,
      "durationMs": 444.58573740178804
    },
    {
      "pitch": 60,
      "velocity": 60,
      "startTimeMs": 3843.886556362496,
      "durationMs": 455.1037913874971
    },
    {
      "pitch": 57,
      "velocity": 58,
      "startTimeMs": 3955.5753806295884,
      "durationMs": 405.55445117288394
    },
    {
      "pitch": 52,
      "velocity": 65,
      "startTimeMs": 4068.638219530632,
      "durationMs": 366.46890056066155
    },
    {
      "pitch": 41,
      "velocity": 62,
      "startTimeMs": 4181.133568120778,
      "durationMs": 378.11542568437346
    },
    {
      "pitch": 53,
      "velocity": 59,
      "startTimeMs": 4258.172854764823,
      "durationMs": 385.3924726519292
    },
    {
      "pitch": 57,
      "velocity": 62,
      "startTimeMs": 4389.453964190473,
      "durationMs": 366.4052576918667
    },
    {
      "pitch": 60,
      "velocity": 47,
      "startTimeMs": 4459.756980926493,
      "durationMs": 469.96253954268263
    },
    {
      "pitch": 65,
      "velocity": 61,
      "startTimeMs": 4582.758978351362,
      "durationMs": 462.2479659204436
    },
    {
      "pitch": 60,
      "velocity": 57,
      "startTimeMs": 4667.586215134057,
      "durationMs": 387.3170489381857
    },
    {
      "pitch": 57,
      "velocity": 62,
      "startTimeMs": 4788.586966106273,
      "durationMs": 436.90058066050983
    },
    {
      "pitch": 53,
      "velocity": 46,
      "startTimeMs": 4884.5413692699,
      "durationMs": 426.5642030186987
    },
    {
      "pitch": 43,
      "velocity": 73,
      "startTimeMs": 4982.2866109163,
      "durationMs": 413.7652313052835
    },
    {
      "pitch": 50,
      "velocity": 61,
      "startTimeMs": 5086.441849855814,
      "durationMs": 364.18059982174003
    },
    {
      "pitch": 55,
      "velocity": 52,
      "startTimeMs": 5215.341835477497,
      "durationMs": 404.63861058145136
    },
    {
      "pitch": 59,
      "velocity": 46,
      "startTimeMs": 5315.656762300288,
      "durationMs": 431.58935545817957
    },
    {
      "pitch": 62,
      "velocity": 63,
      "startTimeMs": 5417.577975287945,
      "durationMs": 379.6990665946087
    },
    {
      "pitch": 59,
      "velocity": 65,
      "startTimeMs": 5516.664767204984,
      "durationMs": 391.66630164151195
    },
    {
      "pitch": 55,
      "velocity": 59,
      "startTimeMs": 5607.901724579726,
      "durationMs": 431.8115736033033
    },
    {
      "pitch": 50,
      "velocity": 61,
      "startTimeMs": 5730.672042830732,
      "durationMs": 387.31671851046684
    },
    {
      "pitch": 48,
      "velocity": 66,
      "startTimeMs": 5848.504143032716,
      "durationMs": 389.7900905687488
    },
    {
      "pitch": 52,
      "velocity": 65,
      "startTimeMs": 5929.600685719156,
      "durationMs": 420.2842532419504
    },
    {
      "pitch": 55,
      "velocity": 48,
      "startTimeMs": 6058.93690824411,
      "durationMs": 471.5329171575546
    },
    {
      "pitch": 60,
      "velocity": 62,
      "startTimeMs": 6130.114772441711,
      "durationMs": 373.5976553885405
    },
    {
      "pitch": 64,
      "velocity": 75,
      "startTimeMs": 6243.715211511731,
      "durationMs": 460.7807685906538
    },
    {
      "pitch": 60,
      "velocity": 46,
      "startTimeMs": 6370.49302851541,
      "durationMs": 365.70397513075835
    },
    {
      "pitch": 55,
      "velocity": 49,
      "startTimeMs": 6438.475160896845,
      "durationMs": 433.8058388293391
    },
    {
      "pitch": 52,
      "velocity": 58,
      "startTimeMs": 6564.567216845056,
      "durationMs": 424.28002476350997
    }
  ]
}