{
  "scoreTitle": "Bach - Prelude in C Major (WTC I)",
  "notes": [
    {
      "pitch": 48,
      "velocity": 62,
      "startTimeMs": 0,
      "durationMs": 371.60890773230966
    },
    {
      "pitch": 55,
      "velocity": 51,
      "startTimeMs": 113.64052727010606,
      "durationMs": 443.6691182819671
    },
    {
      "pitch": 51,
      "velocity": 46,
      "startTimeMs": 122.2651691564746,
      "durationMs": 357.89131909642543
    },
    {
      "pitch": 60,
      "velocity": 45,
      "startTimeMs": 268.13814164613257,
      "durationMs": 449.0175875578876
    },
    {
      "pitch": 64,
      "velocity": 61,
      "startTimeMs": 372.240935000995,
      "durationMs": 473.81830069251436
    },
    {
      "pitch": 60,
      "velocity": 56,
      "startTimeMs": 440.1766087000262,
      "durationMs": 429.63242058752803
    },
    {
      "pitch": 40,
      "velocity": 54,
      "startTimeMs": 644.9267062823584,
      "durationMs": 457.842249698291
    },
    {
      "pitch": 49,
      "velocity": 56,
      "startTimeMs": 874.247700576318,
      "durationMs": 436.8245814876305
    },
    {
      "pitch": 60,
      "velocity": 50,
      "startTimeMs": 1212.6554186614833,
      "durationMs": 400.439287556277
    },
    {
      "pitch": 60,
      "velocity": 59,
      "startTimeMs": 1303.128851696952,
      "durationMs": 401.59859688637266
    },
    {
      "pitch": 65,
      "velocity": 75,
      "startTimeMs": 1337.3309175424988,
      "durationMs": 363.0919803639852
    },
    {
      "pitch": 52,
      "velocity": 46,
      "startTimeMs": 1508.3096143928208,
      "durationMs": 454.79739176306845
    },
    {
      "pitch": 43,
      "velocity": 73,
      "startTimeMs": 1749.2938915037757,
      "durationMs": 463.71261997575033
    },
    {
      "pitch": 35,
      "velocity": 65,
      "startTimeMs": 1847.769964110674,
      "durationMs": 411.52314824009153
    },
    {
      "pitch": 55,
      "velocity": 53,
      "startTimeMs": 1887.2736268326303,
      "durationMs": 447.5433931231989
    },
    {
      "pitch": 59,
      "velocity": 49,
      "startTimeMs": 1951.5659554093888,
      "durationMs": 417.8574533762247
    },
    {
      "pitch": 62,
      "velocity": 75,
      "startTimeMs": 2005.2631594034654,
      "durationMs": 374.16441688197295
    },
    {
      "pitch": 55,
      "velocity": 53,
      "startTimeMs": 2285.276644223602,
      "durationMs": 475.5514638683689
    },
    {
      "pitch": 59,
      "velocity": 55,
      "startTimeMs": 2449.553079864823,
      "durationMs": 368.11068836615124
    },
    {
      "pitch": 48,
      "velocity": 63,
      "startTimeMs": 2590.763185504216,
      "durationMs": 475.65267902543104
    },
    {
      "pitch": 55,
      "velocity": 61,
      "startTimeMs": 2776.667202967827,
      "durationMs": 430.2879430964382
    },
    {
      "pitch": 59,
      "velocity": 60,
      "startTimeMs": 2832.288916892046,
      "durationMs": 356.6012594648957
    },
    {
      "pitch": 60,
      "velocity": 47,
      "startTimeMs": 3096.4352531741415,
      "durationMs": 364.87334817515153
    },
    {
      "pitch": 55,
      "velocity": 49,
      "startTimeMs": 3177.1204330514465,
      "durationMs": 370.215599729137
    },
    {
      "pitch": 52,
      "velocity": 64,
      "startTimeMs": 3182.1779924546786,
      "durationMs": 407.05890919177756
    },
    {
      "pitch": 48,
      "velocity": 61,
      "startTimeMs": 3379.3195471513286,
      "durationMs": 443.28528826905693
    },
    {
      "pitch": 64,
      "velocity": 61,
      "startTimeMs": 3425.1200167829006,
      "durationMs": 410.6024343405579
    },
    {
      "pitch": 57,
      "velocity": 62,
      "startTimeMs": 3445.8735186680788,
      "durationMs": 382.93100824123877
    },
    {
      "pitch": 60,
      "velocity": 52,
      "startTimeMs": 3672.0539247873535,
      "durationMs": 362.5917076804551
    },
    {
      "pitch": 64,
      "velocity": 63,
      "startTimeMs": 3752.831223961718,
      "durationMs": 437.78888895370176
    },
    {
      "pitch": 57,
      "velocity": 48,
      "startTimeMs": 3939.7453256305207,
      "durationMs": 366.2830184452696
    },
    {
      "pitch": 60,
      "velocity": 63,
      "startTimeMs": 3941.2695147828013,
      "durationMs": 426.1931228817791
    },
    {
      "pitch": 52,
      "velocity": 46,
      "startTimeMs": 4055.904933607335,
      "durationMs": 438.33723507832934
    },
    {
      "pitch": 41,
      "velocity": 58,
      "startTimeMs": 4134.52718774566,
      "durationMs": 385.24870840670235
    },
    {
      "pitch": 53,
      "velocity": 53,
      "startTimeMs": 4255.209661300214,
      "durationMs": 411.9951752167876
    },
    {
      "pitch": 56,
      "velocity": 62,
      "startTimeMs": 4285.117665904976,
      "durationMs": 458.6701148016607
    },
    {
      "pitch": 65,
      "velocity": 67,
      "startTimeMs": 4526.082793173169,
      "durationMs": 466.97202485548524
    },
    {
      "pitch": 60,
      "velocity": 59,
      "startTimeMs": 4665.584351517563,
      "durationMs": 389.8228202850317
    },
    {
      "pitch": 43,
      "velocity": 56,
      "startTimeMs": 4943.540179682835,
      "durationMs": 426.5642030186987
    },
    {
      "pitch": 49,
      "velocity": 60,
      "startTimeMs": 5014.195134119458,
      "durationMs": 417.02296453160585
    },
    {
      "pitch": 54,
      "velocity": 47,
      "startTimeMs": 5278.601842402158,
      "durationMs": 428.54605497292016
    },
    {
      "pitch": 59,
      "velocity": 52,
      "startTimeMs": 5390.557462825887,
      "durationMs": 426.53154885506797
    },
    {
      "pitch": 62,
      "velocity": 73,
      "startTimeMs": 5448.141299561172,
      "durationMs": 419.5145061081615
    },
    {
      "pitch": 60,
      "velocity": 49,
      "startTimeMs": 5473.956235839605,
      "durationMs": 438.12794453666305
    },
    {
      "pitch": 50,
      "velocity": 62,
      "startTimeMs": 5649.162916451584,
      "durationMs": 380.81095570004675
    },
    {
      "pitch": 55,
      "velocity": 47,
      "startTimeMs": 5675.37289848288,
      "durationMs": 355.3310987771975
    },
    {
      "pitch": 52,
      "velocity": 65,
      "startTimeMs": 5898.003428595778,
      "durationMs": 420.2842532419504
    },
    {
      "pitch": 47,
      "velocity": 66,
      "startTimeMs": 5909.187381830243,
      "durationMs": 389.7900905687488
    },
    {
      "pitch": 72,
      "velocity": 48,
      "startTimeMs": 6068.919067417154,
      "durationMs": 446.9687521642915
    },
    {
      "pitch": 64,
      "velocity": 65,
      "startTimeMs": 6192.125930961389,
      "durationMs": 379.6163307075983
    },
    {
      "pitch": 60,
      "velocity": 46,
      "startTimeMs": 6351.873037096542,
      "durationMs": 365.70397513075835
    },
    {
      "pitch": 55,
      "velocity": 49,
      "startTimeMs": 6359.04247115089,
      "durationMs": 433.8058388293391
    },
    {
      "pitch": 40,
      "velocity": 48,
      "startTimeMs": 6574.681372954949,
      "durationMs": 363.57214917588755
    }
  ]
}