{
  "scoreTitle": "Beethoven - Moonlight Sonata Op.27 No.2 (1st Movement)",
  "notes": [
    {
      "pitch": 37,
      "velocity": 47,
      "startTimeMs": 0,
      "durationMs": 1911.1315254804492
    },
    {
      "pitch": 49,
      "velocity": 48,
      "startTimeMs": 0.7258645399735961,
      "durationMs": 348.77733782342176
    },
    {
      "pitch": 52,
      "velocity": 30,
      "startTimeMs": 357.2285417525109,
      "durationMs": 363.7048281719942
    },
    {
      "pitch": 56,
      "velocity": 44,
      "startTimeMs": 712.9980314211008,
      "durationMs": 366.707037558133
    },
    {
      "pitch": 61,
      "velocity": 43,
      "startTimeMs": 1076.3216794578962,
      "durationMs": 340.02684105549906
    },
    {
      "pitch": 49,
      "velocity": 32,
      "startTimeMs": 1425.9569412932306,
      "durationMs": 344.27792506828615
    },
    {
      "pitch": 52,
      "velocity": 31,
      "startTimeMs": 1781.9466195898376,
      "durationMs": 381.75697714576614
    },
    {
      "pitch": 56,
      "velocity": 47,
      "startTimeMs": 2140.9136928924763,
      "durationMs": 334.98338729361706
    },
    {
      "pitch": 61,
      "velocity": 36,
      "startTimeMs": 2497.786160418671,
      "durationMs": 379.0612681658846
    },
    {
      "pitch": 49,
      "velocity": 32,
      "startTimeMs": 2853.7730645604906,
      "durationMs": 395.2126129659086
    },
    {
      "pitch": 52,
      "velocity": 41,
      "startTimeMs": 3213.540279123609,
      "durationMs": 320.99865326672335
    },
    {
      "pitch": 56,
      "velocity": 50,
      "startTimeMs": 3574.6576964439073,
      "durationMs": 311.22169745484445
    },
    {
      "pitch": 61,
      "velocity": 44,
      "startTimeMs": 3924.488403373851,
      "durationMs": 344.22736875974795
    },
    {
      "pitch": 49,
      "velocity": 40,
      "startTimeMs": 4278.22788961675,
      "durationMs": 346.5533700381066
    },
    {
      "pitch": 37,
      "velocity": 50,
      "startTimeMs": 4286.625481614679,
      "durationMs": 2363.261948693449
    },
    {
      "pitch": 52,
      "velocity": 40,
      "startTimeMs": 4643.932023680798,
      "durationMs": 326.3528440058007
    },
    {
      "pitch": 56,
      "velocity": 34,
      "startTimeMs": 5002.285629923206,
      "durationMs": 331.9514464105056
    },
    {
      "pitch": 61,
      "velocity": 48,
      "startTimeMs": 5353.346722879223,
      "durationMs": 349.47505292441923
    },
    {
      "pitch": 49,
      "velocity": 34,
      "startTimeMs": 5722.24292673354,
      "durationMs": 358.16353146533544
    },
    {
      "pitch": 52,
      "velocity": 50,
      "startTimeMs": 6065.182957514181,
      "durationMs": 320.71235732740536
    },
    {
      "pitch": 56,
      "velocity": 49,
      "startTimeMs": 6426.72770555822,
      "durationMs": 410.2987193114389
    },
    {
      "pitch": 61,
      "velocity": 30,
      "startTimeMs": 6791.486760950036,
      "durationMs": 376.4589368131984
    },
    {
      "pitch": 49,
      "velocity": 50,
      "startTimeMs": 7146.871187650607,
      "durationMs": 340.0188006818977
    },
    {
      "pitch": 52,
      "velocity": 38,
      "startTimeMs": 7492.051925057627,
      "durationMs": 407.70229630751226
    },
    {
      "pitch": 56,
      "velocity": 50,
      "startTimeMs": 7850.84543030762,
      "durationMs": 335.5476562266392
    },
    {
      "pitch": 61,
      "velocity": 35,
      "startTimeMs": 8208.731142582508,
      "durationMs": 361.3620389413884
    },
    {
      "pitch": 35,
      "velocity": 50,
      "startTimeMs": 8563.437721766617,
      "durationMs": 2135.532240875752
    },
    {
      "pitch": 47,
      "velocity": 39,
      "startTimeMs": 8579.193713491672,
      "durationMs": 329.2270332505063
    },
    {
      "pitch": 52,
      "velocity": 45,
      "startTimeMs": 8921.831541344089,
      "durationMs": 391.00249143786664
    },
    {
      "pitch": 56,
      "velocity": 45,
      "startTimeMs": 9279.726453898611,
      "durationMs": 405.0195013969632
    },
    {
      "pitch": 59,
      "velocity": 36,
      "startTimeMs": 9644.562645536864,
      "durationMs": 403.0978742502332
    },
    {
      "pitch": 47,
      "velocity": 42,
      "startTimeMs": 10003.407183565105,
      "durationMs": 410.194573927953
    },
    {
      "pitch": 52,
      "velocity": 33,
      "startTimeMs": 10357.424070599425,
      "durationMs": 330.13274432135796
    },
    {
      "pitch": 56,
      "velocity": 48,
      "startTimeMs": 10715.148458644504,
      "durationMs": 327.1661483340956
    },
    {
      "pitch": 59,
      "velocity": 31,
      "startTimeMs": 11067.091639969547,
      "durationMs": 395.67522145575856
    },
    {
      "pitch": 47,
      "velocity": 36,
      "startTimeMs": 11431.275073024168,
      "durationMs": 361.34649264943795
    },
    {
      "pitch": 52,
      "velocity": 37,
      "startTimeMs": 11786.933672109819,
      "durationMs": 387.6377954597235
    },
    {
      "pitch": 56,
      "velocity": 43,
      "startTimeMs": 12136.408035884802,
      "durationMs": 341.53188213459504
    },
    {
      "pitch": 59,
      "velocity": 50,
      "startTimeMs": 12492.866738995714,
      "durationMs": 409.01770121778196
    },
    {
      "pitch": 37,
      "velocity": 43,
      "startTimeMs": 12854.571698829175,
      "durationMs": 1981.2790718058977
    },
    {
      "pitch": 49,
      "velocity": 38,
      "startTimeMs": 12855.892963380205,
      "durationMs": 353.1387216143893
    },
    {
      "pitch": 52,
      "velocity": 47,
      "startTimeMs": 13219.214070201419,
      "durationMs": 314.06164945017144
    },
    {
      "pitch": 56,
      "velocity": 32,
      "startTimeMs": 13563.664697132499,
      "durationMs": 402.82503389372795
    },
    {
      "pitch": 61,
      "velocity": 36,
      "startTimeMs": 13928.341686578637,
      "durationMs": 396.21254221752304
    },
    {
      "pitch": 49,
      "velocity": 42,
      "startTimeMs": 14277.748771767905,
      "durationMs": 331.98604194701625
    },
    {
      "pitch": 52,
      "velocity": 47,
      "startTimeMs": 14641.625262632982,
      "durationMs": 374.4862119947227
    },
    {
      "pitch": 56,
      "velocity": 31,
      "startTimeMs": 14995.483214374624,
      "durationMs": 365.6264597303132
    },
    {
      "pitch": 61,
      "velocity": 48,
      "startTimeMs": 15350.057501509375,
      "durationMs": 354.6559125473858
    },
    {
      "pitch": 49,
      "velocity": 46,
      "startTimeMs": 15707.195787561372,
      "durationMs": 312.1547998472057
    },
    {
      "pitch": 52,
      "velocity": 37,
      "startTimeMs": 16074.231972286234,
      "durationMs": 346.83309478410115
    },
    {
      "pitch": 56,
      "velocity": 31,
      "startTimeMs": 16429.834133491542,
      "durationMs": 369.93373324986817
    },
    {
      "pitch": 61,
      "velocity": 38,
      "startTimeMs": 16786.078809162795,
      "durationMs": 325.4563427953789
    },
    {
      "pitch": 49,
      "velocity": 44,
      "startTimeMs": 17136.01783268903,
      "durationMs": 370.1242059456885
    },
    {
      "pitch": 40,
      "velocity": 60,
      "startTimeMs": 17141.189716405803,
      "durationMs": 2014.2838370134896
    },
    {
      "pitch": 52,
      "velocity": 46,
      "startTimeMs": 17500.602150465624,
      "durationMs": 331.9857587232572
    },
    {
      "pitch": 56,
      "velocity": 41,
      "startTimeMs": 17863.21118102261,
      "durationMs": 334.1057919160703
    },
    {
      "pitch": 64,
      "velocity": 50,
      "startTimeMs": 18211.12598857337,
      "durationMs": 360.2436456359575
    },
    {
      "pitch": 49,
      "velocity": 33,
      "startTimeMs": 18578.336668059546,
      "durationMs": 404.17107184933246
    },
    {
      "pitch": 52,
      "velocity": 47,
      "startTimeMs": 18922.284004214776,
      "durationMs": 320.2265617616061
    },
    {
      "pitch": 56,
      "velocity": 50,
      "startTimeMs": 19283.200370318973,
      "durationMs": 394.95494450627467
    },
    {
      "pitch": 64,
      "velocity": 31,
      "startTimeMs": 19649.387687596638,
      "durationMs": 313.4605501120785
    },
    {
      "pitch": 49,
      "velocity": 34,
      "startTimeMs": 19992.0567310254,
      "durationMs": 371.8335761394335
    },
    {
      "pitch": 52,
      "velocity": 43,
      "startTimeMs": 20357.969743880876,
      "durationMs": 363.6685926544371
    },
    {
      "pitch": 56,
      "velocity": 34,
      "startTimeMs": 20717.342028265804,
      "durationMs": 362.0275309863059
    },
    {
      "pitch": 64,
      "velocity": 34,
      "startTimeMs": 21065.798071997648,
      "durationMs": 308.0530919466633
    },
    {
      "pitch": 49,
      "velocity": 47,
      "startTimeMs": 21422.21612651817,
      "durationMs": 398.3001465840366
    },
    {
      "pitch": 42,
      "velocity": 41,
      "startTimeMs": 21436.126568811702,
      "durationMs": 2399.308694909876
    },
    {
      "pitch": 54,
      "velocity": 37,
      "startTimeMs": 21780.187139127596,
      "durationMs": 396.20775316642465
    },
    {
      "pitch": 57,
      "velocity": 30,
      "startTimeMs": 22148.95980213175,
      "durationMs": 322.78864250909356
    },
    {
      "pitch": 61,
      "velocity": 37,
      "startTimeMs": 22498.587410664823,
      "durationMs": 332.15775459940767
    },
    {
      "pitch": 49,
      "velocity": 45,
      "startTimeMs": 22863.097525669353,
      "durationMs": 327.4036125941783
    },
    {
      "pitch": 54,
      "velocity": 37,
      "startTimeMs": 23211.168768163127,
      "durationMs": 327.4560943434795
    },
    {
      "pitch": 57,
      "velocity": 32,
      "startTimeMs": 23567.886220404936,
      "durationMs": 407.16668971946723
    },
    {
      "pitch": 61,
      "velocity": 47,
      "startTimeMs": 23926.966282721183,
      "durationMs": 339.0517715944007
    },
    {
      "pitch": 49,
      "velocity": 48,
      "startTimeMs": 24281.893728856525,
      "durationMs": 406.7001052601666
    },
    {
      "pitch": 54,
      "velocity": 40,
      "startTimeMs": 24641.81016299417,
      "durationMs": 350.32791612899365
    },
    {
      "pitch": 57,
      "velocity": 36,
      "startTimeMs": 25006.392075726577,
      "durationMs": 330.86312565770515
    },
    {
      "pitch": 61,
      "velocity": 47,
      "startTimeMs": 25363.952059790838,
      "durationMs": 377.1632657408421
    },
    {
      "pitch": 37,
      "velocity": 53,
      "startTimeMs": 25709.43827635134,
      "durationMs": 1866.4117357240561
    },
    {
      "pitch": 49,
      "velocity": 33,
      "startTimeMs": 25711.308364606644,
      "durationMs": 380.6879567514946
    },
    {
      "pitch": 52,
      "velocity": 42,
      "startTimeMs": 26069.96285796647,
      "durationMs": 378.27233009225694
    },
    {
      "pitch": 56,
      "velocity": 42,
      "startTimeMs": 26431.21029951883,
      "durationMs": 376.1412084220784
    },
    {
      "pitch": 61,
      "velocity": 47,
      "startTimeMs": 26782.52948370733,
      "durationMs": 392.8991252825775
    },
    {
      "pitch": 49,
      "velocity": 49,
      "startTimeMs": 27147.42928409678,
      "durationMs": 373.7184596824719
    },
    {
      "pitch": 52,
      "velocity": 45,
      "startTimeMs": 27495.41922241582,
      "durationMs": 388.6145070470716
    },
    {
      "pitch": 56,
      "velocity": 39,
      "startTimeMs": 27859.684469062828,
      "durationMs": 358.79842963377314
    },
    {
      "pitch": 61,
      "velocity": 37,
      "startTimeMs": 28219.380489718296,
      "durationMs": 375.65667898826786
    },
    {
      "pitch": 49,
      "velocity": 37,
      "startTimeMs": 28563.819377632193,
      "durationMs": 408.9931452980555
    },
    {
      "pitch": 52,
      "velocity": 50,
      "startTimeMs": 28927.858087265504,
      "durationMs": 365.25045350814116
    },
    {
      "pitch": 56,
      "velocity": 34,
      "startTimeMs": 29284.108731520304,
      "durationMs": 373.86335833340536
    },
    {
      "pitch": 61,
      "velocity": 33,
      "startTimeMs": 29647.177881874322,
      "durationMs": 386.9736150107848
    },
    {
      "pitch": 49,
      "velocity": 44,
      "startTimeMs": 29999.30338920752,
      "durationMs": 375.09761420568066
    },
    {
      "pitch": 37,
      "velocity": 54,
      "startTimeMs": 30003.134588422527,
      "durationMs": 1853.7118190189833
    },
    {
      "pitch": 52,
      "velocity": 44,
      "startTimeMs": 30364.34349087794,
      "durationMs": 369.2127488673317
    },
    {
      "pitch": 56,
      "velocity": 47,
      "startTimeMs": 30719.574821001253,
      "durationMs": 351.34788700821787
    },
    {
      "pitch": 61,
      "velocity": 37,
      "startTimeMs": 31070.629687544515,
      "durationMs": 393.5567379830629
    },
    {
      "pitch": 49,
      "velocity": 37,
      "startTimeMs": 31428.324980844547,
      "durationMs": 332.99258359830765
    },
    {
      "pitch": 52,
      "velocity": 40,
      "startTimeMs": 31782.061727427594,
      "durationMs": 399.25287494181964
    },
    {
      "pitch": 56,
      "velocity": 34,
      "startTimeMs": 32140.985707536038,
      "durationMs": 379.2591937529877
    },
    {
      "pitch": 61,
      "velocity": 43,
      "startTimeMs": 32500.681778248054,
      "durationMs": 310.2427547053841
    },
    {
      "pitch": 49,
      "velocity": 30,
      "startTimeMs": 32861.45958949989,
      "durationMs": 395.3641463182786
    },
    {
      "pitch": 52,
      "velocity": 41,
      "startTimeMs": 33206.380051623055,
      "durationMs": 335.5656413256125
    },
    {
      "pitch": 56,
      "velocity": 47,
      "startTimeMs": 33576.80023016134,
      "durationMs": 383.6623931047911
    },
    {
      "pitch": 61,
      "velocity": 37,
      "startTimeMs": 33924.1000476806,
      "durationMs": 332.8144976889203
    }
  ]
}