{
  "title": "Beethoven - Moonlight Sonata Op.27 No.2 (1st Movement)",
  "composer": "L. van Beethoven",
  "bpm": 56,
  "timeSignature": "4/4",
  "ppq": 480,
  "notes": [
    {
      "pitch": 37,
      "velocity": 50,
      "startTick": 0,
      "durationTicks": 960,
      "measure": 1,
      "beat": 1,
      "voice": 3,
      "staff": 2
    },
    {
      "pitch": 49,
      "velocity": 40,
      "startTick": 0,
      "durationTicks": 160,
      "measure": 1,
      "beat": 1.0,
      "voice": 2,
      "staff": 1
    },
    {
      "pitch": 52,
      "velocity": 40,
      "startTick": 160,
      "durationTicks": 160,
      "measure": 1,
      "beat": 1.3333333333333333,
      "voice": 2,
      "staff": 1
    },
    {
      "pitch": 56,
      "velocity": 40,
      "startTick": 320,
      "durationTicks": 160,
      "measure": 1,
      "beat": 1.6666666666666665,
      "voice": 1,
      "staff": 1
    },
    {
      "pitch": 61,
      "velocity": 40,
      "startTick": 480,
      "durationTicks": 160,
      "measure": 1,
      "beat": 2.0,
      "voice": 1,
      "staff": 1
    },
    {
      "pitch": 49,
      "velocity": 40,
      "startTick": 640,
      "durationTicks": 160,
      "measure": 1,
      "beat": 2.3333333333333335,
      "voice": 2,
      "staff": 1
    },
    {
      "pitch": 52,
      "velocity": 40,
      "startTick": 800,
      "durationTicks": 160,
      "measure": 1,
      "beat": 2.6666666666666665,
      "voice": 2,
      "staff": 1
    },
    {
      "pitch": 56,
      "velocity": 40,
      "startTick": 960,
      "durationTicks": 160,
      "measure": 1,
      "beat": 3.0,
      "voice": 1,
      "staff": 1
    },
    {
      "pitch": 61,
      "velocity": 40,
      "startTick": 1120,
      "durationTicks": 160,
      "measure": 1,
      "beat": 3.3333333333333335,
      "voice": 1,
      "staff": 1
    },
    {
      "pitch": 49,
      "velocity": 40,
      "startTick": 1280,
      "durationTicks": 160,
      "measure": 1,
      "beat": 3.6666666666666665,
      "voice": 2,
      "staff": 1
    },
    {
      "pitch": 52,
      "velocity": 40,
      "startTick": 1440,
      "durationTicks": 160,
      "measure": 1,
      "beat": 4.0,
      "voice": 2,
      "staff": 1
    },
    {
      "pitch": 56,
      "velocity": 40,
      "startTick": 1600,
      "durationTicks": 160,
      "measure": 1,
      "beat": 4.333333333333333,
      "voice": 1,
      "staff": 1
    },
    {
      "pitch": 61,
      "velocity": 40,
      "startTick": 1760,
      "durationTicks": 160,
      "measure": 1,
      "beat": 4.666666666666667,
      "voice": 1,
      "staff": 1
    },
    {
      "pitch": 37,
      "velocity": 50,
      "startTick": 1920,
      "durationTicks": 960,
      "measure": 2,
      "beat": 1,
      "voice": 3,
      "staff": 2
    },
    {
      "pitch": 49,
      "velocity": 40,
      "startTick": 1920,
      "durationTicks": 160,
      "measure": 2,
      "beat": 1.0,
      "voice": 2,
      "staff": 1
    },
    {
      "pitch": 52,
      "velocity": 40,
      "startTick": 2080,
      "durationTicks": 160,
      "measure": 2,
      "beat": 1.3333333333333333,
      "voice": 2,
      "staff": 1
    },
    {
      "pitch": 56,
      "velocity": 40,
      "startTick": 2240,
      "durationTicks": 160,
      "measure": 2,
      "beat": 1.6666666666666665,
      "voice": 1,
      "staff": 1
    },
    {
      "pitch": 61,
      "velocity": 40,
      "startTick": 2400,
      "durationTicks": 160,
      "measure": 2,
      "beat": 2.0,
      "voice": 1,
      "staff": 1
    },
    {
      "pitch": 49,
      "velocity": 40,
      "startTick": 2560,
      "durationTicks": 160,
      "measure": 2,
      "beat": 2.3333333333333335,
      "voice": 2,
      "staff": 1
    },
    {
      "pitch": 52,
      "velocity": 40,
      "startTick": 2720,
      "durationTicks": 160,
      "measure": 2,
      "beat": 2.6666666666666665,
      "voice": 2,
      "staff": 1
    },
    {
      "pitch": 56,
      "velocity": 40,
      "startTick": 2880,
      "durationTicks": 160,
      "measure": 2,
      "beat": 3.0,
      "voice": 1,
      "staff": 1
    },
    {
      "pitch": 61,
      "velocity": 40,
      "startTick": 3040,
      "durationTicks": 160,
      "measure": 2,
      "beat": 3.3333333333333335,
      "voice": 1,
      "staff": 1
    },
    {
      "pitch": 49,
      "velocity": 40,
      "startTick": 3200,
      "durationTicks": 160,
      "measure": 2,
      "beat": 3.6666666666666665,
      "voice": 2,
      "staff": 1
    },
    {
      "pitch": 52,
      "velocity": 40,
      "startTick": 3360,
      "durationTicks": 160,
      "measure": 2,
      "beat": 4.0,
      "voice": 2,
      "staff": 1
    },
    {
      "pitch": 56,
      "velocity": 40,
      "startTick": 3520,
      "durationTicks": 160,
      "measure": 2,
      "beat": 4.333333333333333,
      "voice": 1,
      "staff": 1
    },
    {
      "pitch": 61,
      "velocity": 40,
      "startTick": 3680,
      "durationTicks": 160,
      "measure": 2,
      "beat": 4.666666666666667,
      "voice": 1,
      "staff": 1
    },
    {
      "pitch": 35,
      "velocity": 50,
      "startTick": 3840,
      "durationTicks": 960,
      "measure": 3,
      "beat": 1,
      "voice": 3,
      "staff": 2
    },
    {
      "pitch": 47,
      "velocity": 40,
      "startTick": 3840,
      "durationTicks": 160,
      "measure": 3,
      "beat": 1.0,
      "voice": 2,
      "staff": 1
    },
    {
      "pitch": 52,
      "velocity": 40,
      "startTick": 4000,
      "durationTicks": 160,
      "measure": 3,
      "beat": 1.3333333333333333,
      "voice": 2,
      "staff": 1
    },
    {
      "pitch": 56,
      "velocity": 40,
      "startTick": 4160,
      "durationTicks": 160,
      "measure": 3,
      "beat": 1.6666666666666665,
      "voice": 1,
      "staff": 1
    },
    {
      "pitch": 59,
      "velocity": 40,
      "startTick": 4320,
      "durationTicks": 160,
      "measure": 3,
      "beat": 2.0,
      "voice": 1,
      "staff": 1
    },
    {
      "pitch": 47,
      "velocity": 40,
      "startTick": 4480,
      "durationTicks": 160,
      "measure": 3,
      "beat": 2.3333333333333335,
      "voice": 2,
      "staff": 1
    },
    {
      "pitch": 52,
      "velocity": 40,
      "startTick": 4640,
      "durationTicks": 160,
      "measure": 3,
      "beat": 2.6666666666666665,
      "voice": 2,
      "staff": 1
    },
    {
      "pitch": 56,
      "velocity": 40,
      "startTick": 4800,
      "durationTicks": 160,
      "measure": 3,
      "beat": 3.0,
      "voice": 1,
      "staff": 1
    },
    {
      "pitch": 59,
      "velocity": 40,
      "startTick": 4960,
      "durationTicks": 160,
      "measure": 3,
      "beat": 3.3333333333333335,
      "voice": 1,
      "staff": 1
    },
    {
      "pitch": 47,
      "velocity": 40,
      "startTick": 5120,
      "durationTicks": 160,
      "measure": 3,
      "beat": 3.6666666666666665,
      "voice": 2,
      "staff": 1
    },
    {
      "pitch": 52,
      "velocity": 40,
      "startTick": 5280,
      "durationTicks": 160,
      "measure": 3,
      "beat": 4.0,
      "voice": 2,
      "staff": 1
    },
    {
      "pitch": 56,
      "velocity": 40,
      "startTick": 5440,
      "durationTicks": 160,
      "measure": 3,
      "beat": 4.333333333333333,
      "voice": 1,
      "staff": 1
    },
    {
      "pitch": 59,
      "velocity": 40,
      "startTick": 5600,
      "durationTicks": 160,
      "measure": 3,
      "beat": 4.666666666666667,
      "voice": 1,
      "staff": 1
    },
    {
      "pitch": 37,
      "velocity": 50,
      "startTick": 5760,
      "durationTicks": 960,
      "measure": 4,
      "beat": 1,
      "voice": 3,
      "staff": 2
    },
    {
      "pitch": 49,
      "velocity": 40,
      "startTick": 5760,
      "durationTicks": 160,
      "measure": 4,
      "beat": 1.0,
      "voice": 2,
      "staff": 1
    },
    {
      "pitch": 52,
      "velocity": 40,
      "startTick": 5920,
      "durationTicks": 160,
      "measure": 4,
      "beat": 1.3333333333333333,
      "voice": 2,
      "staff": 1
    },
    {
      "pitch": 56,
      "velocity": 40,
      "startTick": 6080,
      "durationTicks": 160,
      "measure": 4,
      "beat": 1.6666666666666665,
      "voice": 1,
      "staff": 1
    },
    {
      "pitch": 61,
      "velocity": 40,
      "startTick": 6240,
      "durationTicks": 160,
      "measure": 4,
      "beat": 2.0,
      "voice": 1,
      "staff": 1
    },
    {
      "pitch": 49,
      "velocity": 40,
      "startTick": 6400,
      "durationTicks": 160,
      "measure": 4,
      "beat": 2.3333333333333335,
      "voice": 2,
      "staff": 1
    },
    {
      "pitch": 52,
      "velocity": 40,
      "startTick": 6560,
      "durationTicks": 160,
      "measure": 4,
      "beat": 2.6666666666666665,
      "voice": 2,
      "staff": 1
    },
    {
      "pitch": 56,
      "velocity": 40,
      "startTick": 6720,
      "durationTicks": 160,
      "measure": 4,
      "beat": 3.0,
      "voice": 1,
      "staff": 1
    },
    {
      "pitch": 61,
      "velocity": 40,
      "startTick": 6880,
      "durationTicks": 160,
      "measure": 4,
      "beat": 3.3333333333333335,
      "voice": 1,
      "staff": 1
    },
    {
      "pitch": 49,
      "velocity": 40,
      "startTick": 7040,
      "durationTicks": 160,
      "measure": 4,
      "beat": 3.6666666666666665,
      "voice": 2,
      "staff": 1
    },
    {
      "pitch": 52,
      "velocity": 40,
      "startTick": 7200,
      "durationTicks": 160,
      "measure": 4,
      "beat": 4.0,
      "voice": 2,
      "staff": 1
    },
    {
      "pitch": 56,
      "velocity": 40,
      "startTick": 7360,
      "durationTicks": 160,
      "measure": 4,
      "beat": 4.333333333333333,
      "voice": 1,
      "staff": 1
    },
    {
      "pitch": 61,
      "velocity": 40,
      "startTick": 7520,
      "durationTicks": 160,
      "measure": 4,
      "beat": 4.666666666666667,
      "voice": 1,
      "staff": 1
    },
    {
      "pitch": 40,
      "velocity": 50,
      "startTick": 7680,
      "durationTicks": 960,
      "measure": 5,
      "beat": 1,
      "voice": 3,
      "staff": 2
    },
    {
      "pitch": 49,
      "velocity": 40,
      "startTick": 7680,
      "durationTicks": 160,
      "measure": 5,
      "beat": 1.0,
      "voice": 2,
      "staff": 1
    },
    {
      "pitch": 52,
      "velocity": 40,
      "startTick": 7840,
      "durationTicks": 160,
      "measure": 5,
      "beat": 1.3333333333333333,
      "voice": 2,
      "staff": 1
    },
    {
      "pitch": 56,
      "velocity": 40,
      "startTick": 8000,
      "durationTicks": 160,
      "measure": 5,
      "beat": 1.6666666666666665,
      "voice": 1,
      "staff": 1
    },
    {
      "pitch": 64,
      "velocity": 40,
      "startTick": 8160,
      "durationTicks": 160,
      "measure": 5,
      "beat": 2.0,
      "voice": 1,
      "staff": 1
    },
    {
      "pitch": 49,
      "velocity": 40,
      "startTick": 8320,
      "durationTicks": 160,
      "measure": 5,
      "beat": 2.3333333333333335,
      "voice": 2,
      "staff": 1
    },
    {
      "pitch": 52,
      "velocity": 40,
      "startTick": 8480,
      "durationTicks": 160,
      "measure": 5,
      "beat": 2.6666666666666665,
      "voice": 2,
      "staff": 1
    },
    {
      "pitch": 56,
      "velocity": 40,
      "startTick": 8640,
      "durationTicks": 160,
      "measure": 5,
      "beat": 3.0,
      "voice": 1,
      "staff": 1
    },
    {
      "pitch": 64,
      "velocity": 40,
      "startTick": 8800,
      "durationTicks": 160,
      "measure": 5,
      "beat": 3.3333333333333335,
      "voice": 1,
      "staff": 1
    },
    {
      "pitch": 49,
      "velocity": 40,
      "startTick": 8960,
      "durationTicks": 160,
      "measure": 5,
      "beat": 3.6666666666666665,
      "voice": 2,
      "staff": 1
    },
    {
      "pitch": 52,
      "velocity": 40,
      "startTick": 9120,
      "durationTicks": 160,
      "measure": 5,
      "beat": 4.0,
      "voice": 2,
      "staff": 1
    },
    {
      "pitch": 56,
      "velocity": 40,
      "startTick": 9280,
      "durationTicks": 160,
      "measure": 5,
      "beat": 4.333333333333333,
      "voice": 1,
      "staff": 1
    },
    {
      "pitch": 64,
      "velocity": 40,
      "startTick": 9440,
      "durationTicks": 160,
      "measure": 5,
      "beat": 4.666666666666667,
      "voice": 1,
      "staff": 1
    },
    {
      "pitch": 42,
      "velocity": 50,
      "startTick": 9600,
      "durationTicks": 960,
      "measure": 6,
      "beat": 1,
      "voice": 3,
      "staff": 2
    },
    {
      "pitch": 49,
      "velocity": 40,
      "startTick": 9600,
      "durationTicks": 160,
      "measure": 6,
      "beat": 1.0,
      "voice": 2,
      "staff": 1
    },
    {
      "pitch": 54,
      "velocity": 40,
      "startTick": 9760,
      "durationTicks": 160,
      "measure": 6,
      "beat": 1.3333333333333333,
      "voice": 2,
      "staff": 1
    },
    {
      "pitch": 57,
      "velocity": 40,
      "startTick": 9920,
      "durationTicks": 160,
      "measure": 6,
      "beat": 1.6666666666666665,
      "voice": 1,
      "staff": 1
    },
    {
      "pitch": 61,
      "velocity": 40,
      "startTick": 10080,
      "durationTicks": 160,
      "measure": 6,
      "beat": 2.0,
      "voice": 1,
      "staff": 1
    },
    {
      "pitch": 49,
      "velocity": 40,
      "startTick": 10240,
      "durationTicks": 160,
      "measure": 6,
      "beat": 2.3333333333333335,
      "voice": 2,
      "staff": 1
    },
    {
      "pitch": 54,
      "velocity": 40,
      "startTick": 10400,
      "durationTicks": 160,
      "measure": 6,
      "beat": 2.6666666666666665,
      "voice": 2,
      "staff": 1
    },
    {
      "pitch": 57,
      "velocity": 40,
      "startTick": 10560,
      "durationTicks": 160,
      "measure": 6,
      "beat": 3.0,
      "voice": 1,
      "staff": 1
    },
    {
      "pitch": 61,
      "velocity": 40,
      "startTick": 10720,
      "durationTicks": 160,
      "measure": 6,
      "beat": 3.3333333333333335,
      "voice": 1,
      "staff": 1
    },
    {
      "pitch": 49,
      "velocity": 40,
      "startTick": 10880,
      "durationTicks": 160,
      "measure": 6,
      "beat": 3.6666666666666665,
      "voice": 2,
      "staff": 1
    },
    {
      "pitch": 54,
      "velocity": 40,
      "startTick": 11040,
      "durationTicks": 160,
      "measure": 6,
      "beat": 4.0,
      "voice": 2,
      "staff": 1
    },
    {
      "pitch": 57,
      "velocity": 40,
      "startTick": 11200,
      "durationTicks": 160,
      "measure": 6,
      "beat": 4.333333333333333,
      "voice": 1,
      "staff": 1
    },
    {
      "pitch": 61,
      "velocity": 40,
      "startTick": 11360,
      "durationTicks": 160,
      "measure": 6,
      "beat": 4.666666666666667,
      "voice": 1,
      "staff": 1
    },
    {
      "pitch": 37,
      "velocity": 50,
      "startTick": 11520,
      "durationTicks": 960,
      "measure": 7,
      "beat": 1,
      "voice": 3,
      "staff": 2
    },
    {
      "pitch": 49,
      "velocity": 40,
      "startTick": 11520,
      "durationTicks": 160,
      "measure": 7,
      "beat": 1.0,
      "voice": 2,
      "staff": 1
    },
    {
      "pitch": 52,
      "velocity": 40,
      "startTick": 11680,
      "durationTicks": 160,
      "measure": 7,
      "beat": 1.3333333333333333,
      "voice": 2,
      "staff": 1
    },
    {
      "pitch": 56,
      "velocity": 40,
      "startTick": 11840,
      "durationTicks": 160,
      "measure": 7,
      "beat": 1.6666666666666665,
      "voice": 1,
      "staff": 1
    },
    {
      "pitch": 61,
      "velocity": 40,
      "startTick": 12000,
      "durationTicks": 160,
      "measure": 7,
      "beat": 2.0,
      "voice": 1,
      "staff": 1
    },
    {
      "pitch": 49,
      "velocity": 40,
      "startTick": 12160,
      "durationTicks": 160,
      "measure": 7,
      "beat": 2.3333333333333335,
      "voice": 2,
      "staff": 1
    },
    {
      "pitch": 52,
      "velocity": 40,
      "startTick": 12320,
      "durationTicks": 160,
      "measure": 7,
      "beat": 2.6666666666666665,
      "voice": 2,
      "staff": 1
    },
    {
      "pitch": 56,
      "velocity": 40,
      "startTick": 12480,
      "durationTicks": 160,
      "measure": 7,
      "beat": 3.0,
      "voice": 1,
      "staff": 1
    },
    {
      "pitch": 61,
      "velocity": 40,
      "startTick": 12640,
      "durationTicks": 160,
      "measure": 7,
      "beat": 3.3333333333333335,
      "voice": 1,
      "staff": 1
    },
    {
      "pitch": 49,
      "velocity": 40,
      "startTick": 12800,
      "durationTicks": 160,
      "measure": 7,
      "beat": 3.6666666666666665,
      "voice": 2,
      "staff": 1
    },
    {
      "pitch": 52,
      "velocity": 40,
      "startTick": 12960,
      "durationTicks": 160,
      "measure": 7,
      "beat": 4.0,
      "voice": 2,
      "staff": 1
    },
    {
      "pitch": 56,
      "velocity": 40,
      "startTick": 13120,
      "durationTicks": 160,
      "measure": 7,
      "beat": 4.333333333333333,
      "voice": 1,
      "staff": 1
    },
    {
      "pitch": 61,
      "velocity": 40,
      "startTick": 13280,
      "durationTicks": 160,
      "measure": 7,
      "beat": 4.666666666666667,
      "voice": 1,
      "staff": 1
    },
    {
      "pitch": 37,
      "velocity": 50,
      "startTick": 13440,
      "durationTicks": 960,
      "measure": 8,
      "beat": 1,
      "voice": 3,
      "staff": 2
    },
    {
      "pitch": 49,
      "velocity": 40,
      "startTick": 13440,
      "durationTicks": 160,
      "measure": 8,
      "beat": 1.0,
      "voice": 2,
      "staff": 1
    },
    {
      "pitch": 52,
      "velocity": 40,
      "startTick": 13600,
      "durationTicks": 160,
      "measure": 8,
      "beat": 1.3333333333333333,
      "voice": 2,
      "staff": 1
    },
    {
      "pitch": 56,
      "velocity": 40,
      "startTick": 13760,
      "durationTicks": 160,
      "measure": 8,
      "beat": 1.6666666666666665,
      "voice": 1,
      "staff": 1
    },
    {
      "pitch": 61,
      "velocity": 40,
      "startTick": 13920,
      "durationTicks": 160,
      "measure": 8,
      "beat": 2.0,
      "voice": 1,
      "staff": 1
    },
    {
      "pitch": 49,
      "velocity": 40,
      "startTick": 14080,
      "durationTicks": 160,
      "measure": 8,
      "beat": 2.3333333333333335,
      "voice": 2,
      "staff": 1
    },
    {
      "pitch": 52,
      "velocity": 40,
      "startTick": 14240,
      "durationTicks": 160,
      "measure": 8,
      "beat": 2.6666666666666665,
      "voice": 2,
      "staff": 1
    },
    {
      "pitch": 56,
      "velocity": 40,
      "startTick": 14400,
      "durationTicks": 160,
      "measure": 8,
      "beat": 3.0,
      "voice": 1,
      "staff": 1
    },
    {
      "pitch": 61,
      "velocity": 40,
      "startTick": 14560,
      "durationTicks": 160,
      "measure": 8,
      "beat": 3.3333333333333335,
      "voice": 1,
      "staff": 1
    },
    {
      "pitch": 49,
      "velocity": 40,
      "startTick": 14720,
      "durationTicks": 160,
      "measure": 8,
      "beat": 3.6666666666666665,
      "voice": 2,
      "staff": 1
    },
    {
      "pitch": 52,
      "velocity": 40,
      "startTick": 14880,
      "durationTicks": 160,
      "measure": 8,
      "beat": 4.0,
      "voice": 2,
      "staff": 1
    },
    {
      "pitch": 56,
      "velocity": 40,
      "startTick": 15040,
      "durationTicks": 160,
      "measure": 8,
      "beat": 4.333333333333333,
      "voice": 1,
      "staff": 1
    },
    {
      "pitch": 61,
      "velocity": 40,
      "startTick": 15200,
      "durationTicks": 160,
      "measure": 8,
      "beat": 4.666666666666667,
      "voice": 1,
      "staff": 1
    }
  ]
}