{
  "title": "Mozart - Piano Sonata K.545 'Facile' (Opening)",
  "composer": "W.A. Mozart",
  "bpm": 120,
  "timeSignature": "4/4",
  "ppq": 480,
  "notes": [
    {
      "pitch": 48,
      "velocity": 50,
      "startTick": 0,
      "durationTicks": 120,
      "measure": 1,
      "beat": 1.0,
      "voice": 2,
      "staff": 2
    },
    {
      "pitch": 72,
      "velocity": 80,
      "startTick": 0,
      "durationTicks": 960,
      "measure": 1,
      "beat": 1.0,
      "voice": 1,
      "staff": 1
    },
    {
      "pitch": 55,
      "velocity": 50,
      "startTick": 120,
      "durationTicks": 120,
      "measure": 1,
      "beat": 1.25,
      "voice": 2,
      "staff": 2
    },
    {
      "pitch": 52,
      "velocity": 50,
      "startTick": 240,
      "durationTicks": 120,
      "measure": 1,
      "beat": 1.5,
      "voice": 2,
      "staff": 2
    },
    {
      "pitch": 55,
      "velocity": 50,
      "startTick": 360,
      "durationTicks": 120,
      "measure": 1,
      "beat": 1.75,
      "voice": 2,
      "staff": 2
    },
    {
      "pitch": 48,
      "velocity": 50,
      "startTick": 480,
      "durationTicks": 120,
      "measure": 1,
      "beat": 2.0,
      "voice": 2,
      "staff": 2
    },
    {
      "pitch": 55,
      "velocity": 50,
      "startTick": 600,
      "durationTicks": 120,
      "measure": 1,
      "beat": 2.25,
      "voice": 2,
      "staff": 2
    },
    {
      "pitch": 52,
      "velocity": 50,
      "startTick": 720,
      "durationTicks": 120,
      "measure": 1,
      "beat": 2.5,
      "voice": 2,
      "staff": 2
    },
    {
      "pitch": 55,
      "velocity": 50,
      "startTick": 840,
      "durationTicks": 120,
      "measure": 1,
      "beat": 2.75,
      "voice": 2,
      "staff": 2
    },
    {
      "pitch": 48,
      "velocity": 50,
      "startTick": 960,
      "durationTicks": 120,
      "measure": 1,
      "beat": 3.0,
      "voice": 2,
      "staff": 2
    },
    {
      "pitch": 71,
      "velocity": 80,
      "startTick": 960,
      "durationTicks": 240,
      "measure": 1,
      "beat": 3.0,
      "voice": 1,
      "staff": 1
    },
    {
      "pitch": 55,
      "velocity": 50,
      "startTick": 1080,
      "durationTicks": 120,
      "measure": 1,
      "beat": 3.25,
      "voice": 2,
      "staff": 2
    },
    {
      "pitch": 52,
      "velocity": 50,
      "startTick": 1200,
      "durationTicks": 120,
      "measure": 1,
      "beat": 3.5,
      "voice": 2,
      "staff": 2
    },
    {
      "pitch": 72,
      "velocity": 80,
      "startTick": 1200,
      "durationTicks": 240,
      "measure": 1,
      "beat": 3.5,
      "voice": 1,
      "staff": 1
    },
    {
      "pitch": 55,
      "velocity": 50,
      "startTick": 1320,
      "durationTicks": 120,
      "measure": 1,
      "beat": 3.75,
      "voice": 2,
      "staff": 2
    },
    {
      "pitch": 48,
      "velocity": 50,
      "startTick": 1440,
      "durationTicks": 120,
      "measure": 1,
      "beat": 4.0,
      "voice": 2,
      "staff": 2
    },
    {
      "pitch": 74,
      "velocity": 80,
      "startTick": 1440,
      "durationTicks": 480,
      "measure": 1,
      "beat": 4.0,
      "voice": 1,
      "staff": 1
    },
    {
      "pitch": 55,
      "velocity": 50,
      "startTick": 1560,
      "durationTicks": 120,
      "measure": 1,
      "beat": 4.25,
      "voice": 2,
      "staff": 2
    },
    {
      "pitch": 52,
      "velocity": 50,
      "startTick": 1680,
      "durationTicks": 120,
      "measure": 1,
      "beat": 4.5,
      "voice": 2,
      "staff": 2
    },
    {
      "pitch": 55,
      "velocity": 50,
      "startTick": 1800,
      "durationTicks": 120,
      "measure": 1,
      "beat": 4.75,
      "voice": 2,
      "staff": 2
    },
    {
      "pitch": 48,
      "velocity": 50,
      "startTick": 1920,
      "durationTicks": 120,
      "measure": 2,
      "beat": 1.0,
      "voice": 2,
      "staff": 2
    },
    {
      "pitch": 72,
      "velocity": 80,
      "startTick": 1920,
      "durationTicks": 480,
      "measure": 2,
      "beat": 1.0,
      "voice": 1,
      "staff": 1
    },
    {
      "pitch": 55,
      "velocity": 50,
      "startTick": 2040,
      "durationTicks": 120,
      "measure": 2,
      "beat": 1.25,
      "voice": 2,
      "staff": 2
    },
    {
      "pitch": 52,
      "velocity": 50,
      "startTick": 2160,
      "durationTicks": 120,
      "measure": 2,
      "beat": 1.5,
      "voice": 2,
      "staff": 2
    },
    {
      "pitch": 55,
      "velocity": 50,
      "startTick": 2280,
      "durationTicks": 120,
      "measure": 2,
      "beat": 1.75,
      "voice": 2,
      "staff": 2
    },
    {
      "pitch": 48,
      "velocity": 50,
      "startTick": 2400,
      "durationTicks": 120,
      "measure": 2,
      "beat": 2.0,
      "voice": 2,
      "staff": 2
    },
    {
      "pitch": 67,
      "velocity": 80,
      "startTick": 2400,
      "durationTicks": 480,
      "measure": 2,
      "beat": 2.0,
      "voice": 1,
      "staff": 1
    },
    {
      "pitch": 55,
      "velocity": 50,
      "startTick": 2520,
      "durationTicks": 120,
      "measure": 2,
      "beat": 2.25,
      "voice": 2,
      "staff": 2
    },
    {
      "pitch": 52,
      "velocity": 50,
      "startTick": 2640,
      "durationTicks": 120,
      "measure": 2,
      "beat": 2.5,
      "voice": 2,
      "staff": 2
    },
    {
      "pitch": 55,
      "velocity": 50,
      "startTick": 2760,
      "durationTicks": 120,
      "measure": 2,
      "beat": 2.75,
      "voice": 2,
      "staff": 2
    },
    {
      "pitch": 48,
      "velocity": 50,
      "startTick": 2880,
      "durationTicks": 120,
      "measure": 2,
      "beat": 3.0,
      "voice": 2,
      "staff": 2
    },
    {
      "pitch": 72,
      "velocity": 80,
      "startTick": 2880,
      "durationTicks": 480,
      "measure": 2,
      "beat": 3.0,
      "voice": 1,
      "staff": 1
    },
    {
      "pitch": 55,
      "velocity": 50,
      "startTick": 3000,
      "durationTicks": 120,
      "measure": 2,
      "beat": 3.25,
      "voice": 2,
      "staff": 2
    },
    {
      "pitch": 52,
      "velocity": 50,
      "startTick": 3120,
      "durationTicks": 120,
      "measure": 2,
      "beat": 3.5,
      "voice": 2,
      "staff": 2
    },
    {
      "pitch": 55,
      "velocity": 50,
      "startTick": 3240,
      "durationTicks": 120,
      "measure": 2,
      "beat": 3.75,
      "voice": 2,
      "staff": 2
    },
    {
      "pitch": 48,
      "velocity": 50,
      "startTick": 3360,
      "durationTicks": 120,
      "measure": 2,
      "beat": 4.0,
      "voice": 2,
      "staff": 2
    },
    {
      "pitch": 71,
      "velocity": 80,
      "startTick": 3360,
      "durationTicks": 240,
      "measure": 2,
      "beat": 4.0,
      "voice": 1,
      "staff": 1
    },
    {
      "pitch": 55,
      "velocity": 50,
      "startTick": 3480,
      "durationTicks": 120,
      "measure": 2,
      "beat": 4.25,
      "voice": 2,
      "staff": 2
    },
    {
      "pitch": 52,
      "velocity": 50,
      "startTick": 3600,
      "durationTicks": 120,
      "measure": 2,
      "beat": 4.5,
      "voice": 2,
      "staff": 2
    },
    {
      "pitch": 72,
      "velocity": 80,
      "startTick": 3600,
      "durationTicks": 240,
      "measure": 3,
      "beat": 0.5,
      "voice": 1,
      "staff": 1
    },
    {
      "pitch": 55,
      "velocity": 50,
      "startTick": 3720,
      "durationTicks": 120,
      "measure": 2,
      "beat": 4.75,
      "voice": 2,
      "staff": 2
    },
    {
      "pitch": 43,
      "velocity": 50,
      "startTick": 3840,
      "durationTicks": 120,
      "measure": 3,
      "beat": 1.0,
      "voice": 2,
      "staff": 2
    },
    {
      "pitch": 74,
      "velocity": 80,
      "startTick": 3840,
      "durationTicks": 480,
      "measure": 3,
      "beat": 1.0,
      "voice": 1,
      "staff": 1
    },
    {
      "pitch": 55,
      "velocity": 50,
      "startTick": 3960,
      "durationTicks": 120,
      "measure": 3,
      "beat": 1.25,
      "voice": 2,
      "staff": 2
    },
    {
      "pitch": 47,
      "velocity": 50,
      "startTick": 4080,
      "durationTicks": 120,
      "measure": 3,
      "beat": 1.5,
      "voice": 2,
      "staff": 2
    },
    {
      "pitch": 55,
      "velocity": 50,
      "startTick": 4200,
      "durationTicks": 120,
      "measure": 3,
      "beat": 1.75,
      "voice": 2,
      "staff": 2
    },
    {
      "pitch": 43,
      "velocity": 50,
      "startTick": 4320,
      "durationTicks": 120,
      "measure": 3,
      "beat": 2.0,
      "voice": 2,
      "staff": 2
    },
    {
      "pitch": 72,
      "velocity": 80,
      "startTick": 4320,
      "durationTicks": 480,
      "measure": 3,
      "beat": 2.0,
      "voice": 1,
      "staff": 1
    },
    {
      "pitch": 55,
      "velocity": 50,
      "startTick": 4440,
      "durationTicks": 120,
      "measure": 3,
      "beat": 2.25,
      "voice": 2,
      "staff": 2
    },
    {
      "pitch": 47,
      "velocity": 50,
      "startTick": 4560,
      "durationTicks": 120,
      "measure": 3,
      "beat": 2.5,
      "voice": 2,
      "staff": 2
    },
    {
      "pitch": 55,
      "velocity": 50,
      "startTick": 4680,
      "durationTicks": 120,
      "measure": 3,
      "beat": 2.75,
      "voice": 2,
      "staff": 2
    },
    {
      "pitch": 43,
      "velocity": 50,
      "startTick": 4800,
      "durationTicks": 120,
      "measure": 3,
      "beat": 3.0,
      "voice": 2,
      "staff": 2
    },
    {
      "pitch": 67,
      "velocity": 80,
      "startTick": 4800,
      "durationTicks": 480,
      "measure": 3,
      "beat": 3.0,
      "voice": 1,
      "staff": 1
    },
    {
      "pitch": 55,
      "velocity": 50,
      "startTick": 4920,
      "durationTicks": 120,
      "measure": 3,
      "beat": 3.25,
      "voice": 2,
      "staff": 2
    },
    {
      "pitch": 47,
      "velocity": 50,
      "startTick": 5040,
      "durationTicks": 120,
      "measure": 3,
      "beat": 3.5,
      "voice": 2,
      "staff": 2
    },
    {
      "pitch": 55,
      "velocity": 50,
      "startTick": 5160,
      "durationTicks": 120,
      "measure": 3,
      "beat": 3.75,
      "voice": 2,
      "staff": 2
    },
    {
      "pitch": 43,
      "velocity": 50,
      "startTick": 5280,
      "durationTicks": 120,
      "measure": 3,
      "beat": 4.0,
      "voice": 2,
      "staff": 2
    },
    {
      "pitch": 77,
      "velocity": 80,
      "startTick": 5280,
      "durationTicks": 480,
      "measure": 3,
      "beat": 4.0,
      "voice": 1,
      "staff": 1
    },
    {
      "pitch": 55,
      "velocity": 50,
      "startTick": 5400,
      "durationTicks": 120,
      "measure": 3,
      "beat": 4.25,
      "voice": 2,
      "staff": 2
    },
    {
      "pitch": 47,
      "velocity": 50,
      "startTick": 5520,
      "durationTicks": 120,
      "measure": 3,
      "beat": 4.5,
      "voice": 2,
      "staff": 2
    },
    {
      "pitch": 55,
      "velocity": 50,
      "startTick": 5640,
      "durationTicks": 120,
      "measure": 3,
      "beat": 4.75,
      "voice": 2,
      "staff": 2
    },
    {
      "pitch": 43,
      "velocity": 50,
      "startTick": 5760,
      "durationTicks": 120,
      "measure": 4,
      "beat": 1.0,
      "voice": 2,
      "staff": 2
    },
    {
      "pitch": 76,
      "velocity": 80,
      "startTick": 5760,
      "durationTicks": 240,
      "measure": 4,
      "beat": 1.0,
      "voice": 1,
      "staff": 1
    },
    {
      "pitch": 55,
      "velocity": 50,
      "startTick": 5880,
      "durationTicks": 120,
      "measure": 4,
      "beat": 1.25,
      "voice": 2,
      "staff": 2
    },
    {
      "pitch": 47,
      "velocity": 50,
      "startTick": 6000,
      "durationTicks": 120,
      "measure": 4,
      "beat": 1.5,
      "voice": 2,
      "staff": 2
    },
    {
      "pitch": 77,
      "velocity": 80,
      "startTick": 6000,
      "durationTicks": 240,
      "measure": 4,
      "beat": 1.5,
      "voice": 1,
      "staff": 1
    },
    {
      "pitch": 55,
      "velocity": 50,
      "startTick": 6120,
      "durationTicks": 120,
      "measure": 4,
      "beat": 1.75,
      "voice": 2,
      "staff": 2
    },
    {
      "pitch": 43,
      "velocity": 50,
      "startTick": 6240,
      "durationTicks": 120,
      "measure": 4,
      "beat": 2.0,
      "voice": 2,
      "staff": 2
    },
    {
      "pitch": 79,
      "velocity": 80,
      "startTick": 6240,
      "durationTicks": 480,
      "measure": 4,
      "beat": 2.0,
      "voice": 1,
      "staff": 1
    },
    {
      "pitch": 55,
      "velocity": 50,
      "startTick": 6360,
      "durationTicks": 120,
      "measure": 4,
      "beat": 2.25,
      "voice": 2,
      "staff": 2
    },
    {
      "pitch": 47,
      "velocity": 50,
      "startTick": 6480,
      "durationTicks": 120,
      "measure": 4,
      "beat": 2.5,
      "voice": 2,
      "staff": 2
    },
    {
      "pitch": 55,
      "velocity": 50,
      "startTick": 6600,
      "durationTicks": 120,
      "measure": 4,
      "beat": 2.75,
      "voice": 2,
      "staff": 2
    },
    {
      "pitch": 43,
      "velocity": 50,
      "startTick": 6720,
      "durationTicks": 120,
      "measure": 4,
      "beat": 3.0,
      "voice": 2,
      "staff": 2
    },
    {
      "pitch": 77,
      "velocity": 80,
      "startTick": 6720,
      "durationTicks": 480,
      "measure": 4,
      "beat": 3.0,
      "voice": 1,
      "staff": 1
    },
    {
      "pitch": 55,
      "velocity": 50,
      "startTick": 6840,
      "durationTicks": 120,
      "measure": 4,
      "beat": 3.25,
      "voice": 2,
      "staff": 2
    },
    {
      "pitch": 47,
      "velocity": 50,
      "startTick": 6960,
      "durationTicks": 120,
      "measure": 4,
      "beat": 3.5,
      "voice": 2,
      "staff": 2
    },
    {
      "pitch": 55,
      "velocity": 50,
      "startTick": 7080,
      "durationTicks": 120,
      "measure": 4,
      "beat": 3.75,
      "voice": 2,
      "staff": 2
    },
    {
      "pitch": 43,
      "velocity": 50,
      "startTick": 7200,
      "durationTicks": 120,
      "measure": 4,
      "beat": 4.0,
      "voice": 2,
      "staff": 2
    },
    {
      "pitch": 76,
      "velocity": 80,
      "startTick": 7200,
      "durationTicks": 480,
      "measure": 4,
      "beat": 4.0,
      "voice": 1,
      "staff": 1
    },
    {
      "pitch": 55,
      "velocity": 50,
      "startTick": 7320,
      "durationTicks": 120,
      "measure": 4,
      "beat": 4.25,
      "voice": 2,
      "staff": 2
    },
    {
      "pitch": 47,
      "velocity": 50,
      "startTick": 7440,
      "durationTicks": 120,
      "measure": 4,
      "beat": 4.5,
      "voice": 2,
      "staff": 2
    },
    {
      "pitch": 55,
      "velocity": 50,
      "startTick": 7560,
      "durationTicks": 120,
      "measure": 4,
      "beat": 4.75,
      "voice": 2,
      "staff": 2
    },
    {
      "pitch": 48,
      "velocity": 50,
      "startTick": 7680,
      "durationTicks": 120,
      "measure": 5,
      "beat": 1.0,
      "voice": 2,
      "staff": 2
    },
    {
      "pitch": 74,
      "velocity": 80,
      "startTick": 7680,
      "durationTicks": 480,
      "measure": 5,
      "beat": 1.0,
      "voice": 1,
      "staff": 1
    },
    {
      "pitch": 55,
      "velocity": 50,
      "startTick": 7800,
      "durationTicks": 120,
      "measure": 5,
      "beat": 1.25,
      "voice": 2,
      "staff": 2
    },
    {
      "pitch": 52,
      "velocity": 50,
      "startTick": 7920,
      "durationTicks": 120,
      "measure": 5,
      "beat": 1.5,
      "voice": 2,
      "staff": 2
    },
    {
      "pitch": 55,
      "velocity": 50,
      "startTick": 8040,
      "durationTicks": 120,
      "measure": 5,
      "beat": 1.75,
      "voice": 2,
      "staff": 2
    },
    {
      "pitch": 48,
      "velocity": 50,
      "startTick": 8160,
      "durationTicks": 120,
      "measure": 5,
      "beat": 2.0,
      "voice": 2,
      "staff": 2
    },
    {
      "pitch": 72,
      "velocity": 80,
      "startTick": 8160,
      "durationTicks": 960,
      "measure": 5,
      "beat": 2.0,
      "voice": 1,
      "staff": 1
    },
    {
      "pitch": 55,
      "velocity": 50,
      "startTick": 8280,
      "durationTicks": 120,
      "measure": 5,
      "beat": 2.25,
      "voice": 2,
      "staff": 2
    },
    {
      "pitch": 52,
      "velocity": 50,
      "startTick": 8400,
      "durationTicks": 120,
      "measure": 5,
      "beat": 2.5,
      "voice": 2,
      "staff": 2
    },
    {
      "pitch": 55,
      "velocity": 50,
      "startTick": 8520,
      "durationTicks": 120,
      "measure": 5,
      "beat": 2.75,
      "voice": 2,
      "staff": 2
    },
    {
      "pitch": 48,
      "velocity": 50,
      "startTick": 8640,
      "durationTicks": 120,
      "measure": 5,
      "beat": 3.0,
      "voice": 2,
      "staff": 2
    },
    {
      "pitch": 55,
      "velocity": 50,
      "startTick": 8760,
      "durationTicks": 120,
      "measure": 5,
      "beat": 3.25,
      "voice": 2,
      "staff": 2
    },
    {
      "pitch": 52,
      "velocity": 50,
      "startTick": 8880,
      "durationTicks": 120,
      "measure": 5,
      "beat": 3.5,
      "voice": 2,
      "staff": 2
    },
    {
      "pitch": 55,
      "velocity": 50,
      "startTick": 9000,
      "durationTicks": 120,
      "measure": 5,
      "beat": 3.75,
      "voice": 2,
      "staff": 2
    },
    {
      "pitch": 48,
      "velocity": 50,
      "startTick": 9120,
      "durationTicks": 120,
      "measure": 5,
      "beat": 4.0,
      "voice": 2,
      "staff": 2
    },
    {
      "pitch": 71,
      "velocity": 80,
      "startTick": 9120,
      "durationTicks": 240,
      "measure": 5,
      "beat": 4.0,
      "voice": 1,
      "staff": 1
    },
    {
      "pitch": 55,
      "velocity": 50,
      "startTick": 9240,
      "durationTicks": 120,
      "measure": 5,
      "beat": 4.25,
      "voice": 2,
      "staff": 2
    },
    {
      "pitch": 52,
      "velocity": 50,
      "startTick": 9360,
      "durationTicks": 120,
      "measure": 5,
      "beat": 4.5,
      "voice": 2,
      "staff": 2
    },
    {
      "pitch": 72,
      "velocity": 80,
      "startTick": 9360,
      "durationTicks": 240,
      "measure": 6,
      "beat": 0.5,
      "voice": 1,
      "staff": 1
    },
    {
      "pitch": 55,
      "velocity": 50,
      "startTick": 9480,
      "durationTicks": 120,
      "measure": 5,
      "beat": 4.75,
      "voice": 2,
      "staff": 2
    },
    {
      "pitch": 48,
      "velocity": 50,
      "startTick": 9600,
      "durationTicks": 120,
      "measure": 6,
      "beat": 1.0,
      "voice": 2,
      "staff": 2
    },
    {
      "pitch": 74,
      "velocity": 80,
      "startTick": 9600,
      "durationTicks": 480,
      "measure": 6,
      "beat": 1.0,
      "voice": 1,
      "staff": 1
    },
    {
      "pitch": 55,
      "velocity": 50,
      "startTick": 9720,
      "durationTicks": 120,
      "measure": 6,
      "beat": 1.25,
      "voice": 2,
      "staff": 2
    },
    {
      "pitch": 52,
      "velocity": 50,
      "startTick": 9840,
      "durationTicks": 120,
      "measure": 6,
      "beat": 1.5,
      "voice": 2,
      "staff": 2
    },
    {
      "pitch": 55,
      "velocity": 50,
      "startTick": 9960,
      "durationTicks": 120,
      "measure": 6,
      "beat": 1.75,
      "voice": 2,
      "staff": 2
    },
    {
      "pitch": 48,
      "velocity": 50,
      "startTick": 10080,
      "durationTicks": 120,
      "measure": 6,
      "beat": 2.0,
      "voice": 2,
      "staff": 2
    },
    {
      "pitch": 72,
      "velocity": 80,
      "startTick": 10080,
      "durationTicks": 1920,
      "measure": 6,
      "beat": 2.0,
      "voice": 1,
      "staff": 1
    },
    {
      "pitch": 55,
      "velocity": 50,
      "startTick": 10200,
      "durationTicks": 120,
      "measure": 6,
      "beat": 2.25,
      "voice": 2,
      "staff": 2
    },
    {
      "pitch": 52,
      "velocity": 50,
      "startTick": 10320,
      "durationTicks": 120,
      "measure": 6,
      "beat": 2.5,
      "voice": 2,
      "staff": 2
    },
    {
      "pitch": 55,
      "velocity": 50,
      "startTick": 10440,
      "durationTicks": 120,
      "measure": 6,
      "beat": 2.75,
      "voice": 2,
      "staff": 2
    },
    {
      "pitch": 48,
      "velocity": 50,
      "startTick": 10560,
      "durationTicks": 120,
      "measure": 6,
      "beat": 3.0,
      "voice": 2,
      "staff": 2
    },
    {
      "pitch": 55,
      "velocity": 50,
      "startTick": 10680,
      "durationTicks": 120,
      "measure": 6,
      "beat": 3.25,
      "voice": 2,
      "staff": 2
    },
    {
      "pitch": 52,
      "velocity": 50,
      "startTick": 10800,
      "durationTicks": 120,
      "measure": 6,
      "beat": 3.5,
      "voice": 2,
      "staff": 2
    },
    {
      "pitch": 55,
      "velocity": 50,
      "startTick": 10920,
      "durationTicks": 120,
      "measure": 6,
      "beat": 3.75,
      "voice": 2,
      "staff": 2
    },
    {
      "pitch": 48,
      "velocity": 50,
      "startTick": 11040,
      "durationTicks": 120,
      "measure": 6,
      "beat": 4.0,
      "voice": 2,
      "staff": 2
    },
    {
      "pitch": 55,
      "velocity": 50,
      "startTick": 11160,
      "durationTicks": 120,
      "measure": 6,
      "beat": 4.25,
      "voice": 2,
      "staff": 2
    },
    {
      "pitch": 52,
      "velocity": 50,
      "startTick": 11280,
      "durationTicks": 120,
      "measure": 6,
      "beat": 4.5,
      "voice": 2,
      "staff": 2
    },
    {
      "pitch": 55,
      "velocity": 50,
      "startTick": 11400,
      "durationTicks": 120,
      "measure": 6,
      "beat": 4.75,
      "voice": 2,
      "staff": 2
    }
  ]
}